<?xml version="1.0" encoding="UTF-8"?> <!-- Generator: Adobe Illustrator 25.2.0, SVG Export Plug-In . SVG Version: 6.00 Build 0) --> <svg xmlns="http://www.w3.org/2000/svg" xmlns:xlink="http://www.w3.org/1999/xlink" version="1.1" id="Layer_1" x="0px" y="0px" width="463.3px" height="100px" viewBox="0 0 463.3 100" style="enable-background:new 0 0 463.3 100;" xml:space="preserve"> <style type="text/css"> .st0{fill-rule:evenodd;clip-rule:evenodd;fill:#000105;} .st1{fill-rule:evenodd;clip-rule:evenodd;fill:#47D7AC;} </style> <g id="Page-1"> <g id="Elevate_Homepage_TOGGLE-1" transform="translate(-482.000000, -281.000000)"> <g id="__Elevate_Logo_Black_Green_RGB" transform="translate(482.000000, 281.000000)"> <path id="Fill-1" class="st0" d="M406.6,78.8c-0.7,0.3-2,0.8-3.9,1.5c-1.8,0.7-4.2,1-7.2,1c-1.7,0-3.2-0.2-4.4-0.6 c-1.2-0.4-2.2-1.1-3-2.1s-1.4-2.4-1.9-4.2c-0.4-1.8-0.6-4.2-0.6-7.1V41.2h18.6V31.1h-18.6V16.3l-11.6,2v49.2 c0,3.9,0.3,7.4,0.9,10.4s1.8,5.6,3.4,7.7s3.8,3.7,6.4,4.7s5.9,1.6,9.9,1.6c3.3,0,6.4-0.4,9-1.2c2.6-0.8,4.5-1.5,5.5-2l0.5-0.2 l-2.3-9.9L406.6,78.8z M352.4,81.2c-1.1,0.2-2.5,0.4-4.1,0.5c-1.9,0.1-4.1,0.2-6.4,0.2c-3.9,0-7-0.7-9.3-2.1 c-2.2-1.3-3.2-3.7-3.2-7.2c0-1.8,0.3-3.2,1.1-4.6c2.9-5.4,13.3-8,22.1-8.3L352.4,81.2z M358.8,36.1c-1.8-2.1-4.2-3.7-7.1-4.8 c-2.9-1.1-6.5-1.7-10.7-1.7c-3.6,0-7.1,0.3-10.2,0.9c-3.2,0.6-5.4,1.2-6.8,1.8l-0.5,0.2l1.4,10l0.8-0.3c1.2-0.5,3.1-1,5.5-1.5 c2.5-0.5,5.5-0.7,8.8-0.7c2.5,0,4.6,0.4,6.2,1.1c1.6,0.7,2.8,1.7,3.7,2.9c0.9,1.2,1.6,2.8,2,4.5c0.1,0.5,0.2,1.1,0.3,1.5h-0.3 c-6.5,0.6-26.4,2.5-32.2,14.1c-1.4,2.7-2,5.5-2,8.6c0,3.5,0.6,6.5,1.7,8.9c1.1,2.5,2.8,4.5,4.8,6c2.1,1.5,4.5,2.6,7.3,3.3 c2.8,0.7,5.8,1,9.1,1c2.4,0,4.7-0.1,7-0.3c2.2-0.2,4.4-0.4,6.5-0.6s3.9-0.5,5.4-0.7c0.8-0.1,3.3-0.5,3.7-0.6l0.6-0.1v-37 c0-3.3-0.4-6.4-1.1-9.2C361.9,40.6,360.6,38.1,358.8,36.1z M303.8,31.6c-0.1,0.4-11.5,35.8-14.5,44.3c-3-8.5-14.4-43.9-14.5-44.3 l-0.1-0.5h-12.5L284,90.7h10.2L316,31.1h-12L303.8,31.6z M424.2,54.6c0.2-1.7,0.7-3.4,1.3-5c0.7-1.9,1.6-3.5,2.8-4.9 c1.2-1.4,2.7-2.6,4.4-3.5c1.7-0.9,3.7-1.3,5.9-1.3c4,0,7.1,1.4,9.4,4.3c2.2,2.7,3.3,6.3,3.3,10.5L424.2,54.6L424.2,54.6z M463.2,63.8c0.1-0.7,0.1-1.3,0.1-2V60c0-10.1-2.1-17.8-6.3-22.8c-4.2-5-10.4-7.6-18.3-7.6c-3.4,0-6.7,0.7-10,2 c-3.3,1.3-6.2,3.3-8.6,5.9c-2.5,2.6-4.5,5.9-6,9.8s-2.3,8.5-2.3,13.7c0,4.5,0.6,8.6,1.7,12.4c1.2,3.8,3,7.1,5.4,9.8 c2.4,2.7,5.5,4.9,9.3,6.5c3.7,1.6,8.1,2.3,13.2,2.3c4,0,7.7-0.4,10.8-1.1c3.1-0.7,5.4-1.5,6.7-2.2l0.4-0.2l-1.7-10.1l-0.8,0.4 c-1.2,0.6-3.1,1.2-5.5,1.8c-2.4,0.6-5.4,0.9-9,0.9c-6.2,0-10.8-1.5-13.7-4.5c-2.8-2.9-4.4-7.1-4.9-12.6h39.2L463.2,63.8z M186.7,90.6h11.6V7l-11.6,2V90.6z M137.3,54.6c0.2-1.7,0.7-3.4,1.3-5c0.7-1.9,1.6-3.5,2.8-4.9s2.7-2.6,4.4-3.5s3.7-1.3,5.9-1.3 c4,0,7.1,1.4,9.4,4.3c2.2,2.7,3.3,6.3,3.3,10.5L137.3,54.6L137.3,54.6z M151.8,29.6c-3.4,0-6.7,0.7-10,2 c-3.2,1.3-6.1,3.3-8.6,5.9s-4.5,5.9-6,9.8s-2.3,8.5-2.3,13.7c0,4.5,0.6,8.6,1.7,12.4c1.2,3.8,3,7.1,5.4,9.8 c2.4,2.7,5.5,4.9,9.2,6.5s8.1,2.3,13.2,2.3c4,0,7.7-0.4,10.8-1.1s5.4-1.5,6.7-2.2l0.4-0.2l-1.7-10.1l-0.8,0.4 c-1.2,0.6-3.1,1.2-5.5,1.8c-2.4,0.6-5.4,0.9-8.9,0.9c-6.2,0-10.8-1.5-13.7-4.5c-2.8-2.9-4.4-7.1-4.9-12.6H176l0.1-0.6 c0.1-0.7,0.1-1.3,0.1-2V60c0-10.1-2.1-17.8-6.3-22.8C165.9,32.2,159.7,29.6,151.8,29.6z M220.8,54.6c0.2-1.7,0.7-3.4,1.3-5 c0.7-1.9,1.6-3.5,2.8-4.9s2.7-2.6,4.4-3.5s3.7-1.3,5.9-1.3c4,0,7.1,1.4,9.4,4.3c2.2,2.7,3.3,6.3,3.3,10.5L220.8,54.6L220.8,54.6z M235.3,29.6c-3.4,0-6.7,0.7-10,2c-3.2,1.3-6.2,3.3-8.6,5.9c-2.5,2.6-4.5,5.9-6,9.8s-2.3,8.5-2.3,13.7c0,4.5,0.6,8.6,1.7,12.4 c1.2,3.8,3,7.1,5.4,9.8c2.4,2.8,5.5,4.9,9.2,6.5s8.2,2.3,13.2,2.3c4,0,7.7-0.4,10.8-1.1s5.4-1.5,6.7-2.2l0.4-0.2l-1.7-10.1 l-0.8,0.4c-1.2,0.6-3.1,1.2-5.5,1.8c-2.4,0.6-5.4,0.9-8.9,0.9c-6.2,0-10.8-1.5-13.7-4.5c-2.8-2.9-4.4-7.1-4.9-12.6h39.2l0.1-0.6 c0.1-0.6,0.1-1.3,0.1-2V60c0-10.1-2.1-17.8-6.3-22.8C249.4,32.2,243.2,29.6,235.3,29.6L235.3,29.6z"></path> <path id="Fill-2" class="st1" d="M82,12.1c-13.9-12-34.1-15.8-52.2-8C11.7,11.8,0.6,29.1,0,47.5c15.1,4.1,31.7,3.3,47.3-3.4 C62.8,37.4,74.7,25.9,82,12.1"></path> <path id="Fill-3" class="st1" d="M53.7,58.9c-17,7.3-34.9,8.9-51.7,5.6c0.6,1.8,1.2,3.7,2,5.5c11,25.2,40.4,36.9,65.8,25.9 c25.4-10.9,37-40.3,26.1-65.5c-0.8-1.9-1.7-3.7-2.7-5.4C84.1,39.5,70.7,51.6,53.7,58.9"></path> </g> </g> </g> </svg> 